<?xml version="1.0" encoding="UTF-8"?>
<svg id="Layer_2" data-name="Layer 2" xmlns="http://www.w3.org/2000/svg" viewBox="0 0 102.55 103.68">
  <defs>
    <style>
      .cls-1 {
        fill: #4787c7;
      }

      .cls-2 {
        fill: #345170;
      }

      .cls-3 {
        fill: #fff;
      }

      .cls-4 {
        fill: #1b3d59;
      }

      .cls-5 {
        fill: #ef3750;
      }

      .cls-6 {
        fill: #a8b9bf;
      }

      .cls-7 {
        fill: #fdb515;
      }
    </style>
  </defs>
  <g id="Layer_1-2" data-name="Layer 1">
    <g>
      <rect class="cls-4" x="40.05" y="70.88" width="22.45" height="27.25"/>
      <rect class="cls-4" x="51.28" y="70.88" width="11.22" height="27.25"/>
      <path class="cls-4" d="M11.6,0h79.35c6.4,0,11.6,5.2,11.6,11.6v50.97c0,6.4-5.2,11.6-11.6,11.6H11.6c-6.4,0-11.6-5.2-11.6-11.6V11.6C0,5.2,5.2,0,11.6,0Z"/>
      <rect class="cls-3" x="7.03" y="7.03" width="88.5" height="60.12" rx="10.26" ry="10.26"/>
      <rect class="cls-2" x="15.56" y="13.63" width="1.64" height="46.91"/>
      <rect class="cls-2" x="12.07" y="60.54" width="8.61" height="1.42"/>
      <rect class="cls-2" x="12.07" y="13.63" width="8.61" height="1.42"/>
      <path class="cls-4" d="M92.87,103.68v-6.07h0c-25.75-14.82-57.44-14.82-83.18,0h0v6.07h83.18Z"/>
      <rect class="cls-7" x="23.84" y="43.63" width="5.84" height="18.33"/>
      <rect class="cls-2" x="33.84" y="35.82" width="5.84" height="26.14"/>
      <rect class="cls-6" x="43.83" y="27.82" width="5.84" height="34.14"/>
      <rect class="cls-1" x="53.83" y="32.21" width="5.84" height="29.75"/>
      <rect class="cls-5" x="63.83" y="21.67" width="5.84" height="40.29"/>
      <g>
        <circle class="cls-2" cx="83.9" cy="37.09" r="6.82"/>
        <path class="cls-6" d="M83.9,37.09v-6.82c-1.88,0-3.59.76-4.82,2l4.82,4.82Z"/>
      </g>
    </g>
  </g>
</svg>